<?xml version="1.0" encoding="UTF-8"?>
<svg width="800" height="480" viewBox="0 0 800 480" fill="none" xmlns="http://www.w3.org/2000/svg">
  <rect width="800" height="480" fill="url(#grad)" />
  <defs>
    <linearGradient id="grad" x1="120" y1="40" x2="720" y2="440" gradientUnits="userSpaceOnUse">
      <stop offset="0" stop-color="#F7B5D4" />
      <stop offset="0.5" stop-color="#A779FF" />
      <stop offset="1" stop-color="#2536B3" />
    </linearGradient>
    <radialGradient id="glow" cx="0" cy="0" r="1" gradientUnits="userSpaceOnUse" gradientTransform="translate(640 120) rotate(140) scale(520 360)">
      <stop offset="0" stop-color="#FFFFFF" stop-opacity="0.6" />
      <stop offset="1" stop-color="#FFFFFF" stop-opacity="0" />
    </radialGradient>
  </defs>
  <rect x="40" y="64" width="720" height="352" rx="32" fill="#100B2B" fill-opacity="0.35" />
  <rect x="56" y="88" width="688" height="304" rx="28" fill="#1A1145" fill-opacity="0.48" />
  <g opacity="0.9">
    <path d="M112 180C176 152 248 152 308 188C368 224 448 224 512 196C576 168 656 168 720 204V352H112V180Z" fill="url(#glow)" />
    <path d="M96 256C160 220 248 220 312 252C376 284 456 284 520 248C584 212 672 212 736 248V368H96V256Z" fill="url(#grad)" fill-opacity="0.42" />
  </g>
  <circle cx="192" cy="152" r="44" fill="#FDECF4" fill-opacity="0.4" />
  <circle cx="200" cy="160" r="28" fill="#FDF6FB" fill-opacity="0.65" />
  <rect x="272" y="140" width="320" height="20" rx="10" fill="#FDF6FB" fill-opacity="0.8" />
  <rect x="272" y="180" width="240" height="16" rx="8" fill="#FDF6FB" fill-opacity="0.45" />
  <rect x="272" y="208" width="300" height="16" rx="8" fill="#FDF6FB" fill-opacity="0.35" />
  <rect x="160" y="300" width="480" height="6" rx="3" fill="#FDF6FB" fill-opacity="0.5" />
  <rect x="200" y="320" width="400" height="6" rx="3" fill="#FDF6FB" fill-opacity="0.35" />
</svg>
